<mxfile host="app.diagrams.net" modified="2024-04-11T07:49:03.588Z" agent="Mozilla/5.0 (Macintosh; Intel Mac OS X 10_15_7) AppleWebKit/537.36 (KHTML, like Gecko) Chrome/119.0.0.0 Safari/537.36" version="24.2.0" etag="1ilVOnlcYvf3USb_pMcJ" type="github">
  <diagram name="第 1 页" id="F7xVi9-TRvdajsFrFqBc">
    <mxGraphModel>
      <root>
        <mxCell id="0" />
        <mxCell id="1" parent="0" />
      </root>
    </mxGraphModel>
  </diagram>
</mxfile>
